<svg width="160" height="160" viewBox="0 0 160 160" fill="none" xmlns="http://www.w3.org/2000/svg">
<g clip-path="url(#clip0_91_435)">
<path d="M96.3331 94.6668L115.666 106L110.333 114.667L86.3331 100V66.6668H96.3331V94.6668ZM146.333 93.3335C146.333 122.733 122.4 146.667 92.9998 146.667C79.5331 146.667 67.2664 141.6 57.8664 133.333H26.3331C18.6664 133.333 12.9998 127.667 12.9998 120V60.0002C12.9998 52.5335 18.9331 46.9335 26.3331 46.6668V43.3335C26.3331 26.7335 39.7331 13.3335 56.3331 13.3335C71.9331 13.3335 84.5998 25.2668 86.0664 40.5335C88.3331 40.2002 90.6664 40.0002 92.9998 40.0002C122.4 40.0002 146.333 63.9335 146.333 93.3335ZM39.6664 46.6668H72.9998V41.7335C72.1998 33.2668 64.9998 26.6668 56.3331 26.6668C47.1331 26.6668 39.6664 34.1335 39.6664 43.3335V46.6668ZM133 93.3335C133 71.2668 115.066 53.3335 92.9998 53.3335C70.9331 53.3335 52.9998 71.2668 52.9998 93.3335C52.9998 115.4 70.9331 133.333 92.9998 133.333C115.066 133.333 133 115.4 133 93.3335Z" fill="white"/>
</g>
<defs>
<clipPath id="clip0_91_435">
<rect width="160" height="160" fill="white"/>
</clipPath>
</defs>
</svg>
