<svg width="987" height="185" viewBox="0 0 987 185" fill="none" xmlns="http://www.w3.org/2000/svg">
<path fill-rule="evenodd" clip-rule="evenodd" d="M0.000391243 0.353294C0.0233912 0.689294 1.84539 2.95928 4.04939 5.39828L8.0574 9.83129L27.7584 12.6113C48.9114 15.5953 57.3384 17.8263 65.8594 22.6963C73.0504 26.8063 83.6324 36.9333 87.9594 43.8463C89.8844 46.9213 91.8264 49.3203 92.2754 49.1783C92.7244 49.0363 94.0194 47.2953 95.1544 45.3103L97.2174 41.7003L93.8954 36.8713C86.6734 26.3743 77.9114 18.9333 65.3794 12.6533C56.9694 8.43928 50.3814 6.90827 25.7804 3.44527C14.0534 1.79527 3.44739 0.286285 2.20939 0.0932846C0.971391 -0.0997154 -0.0226088 0.0162944 0.000391243 0.353294ZM175.459 3.1043C162.809 4.9013 149.607 7.08329 146.12 7.95229C132.691 11.2983 116.959 21.4053 108.596 32.0603C102.893 39.3273 67.7364 98.1903 68.1454 99.7883C68.3184 100.462 75.3974 114.167 83.8764 130.243L99.2944 159.473L101.454 155.67C106.002 147.664 130.959 99.7533 130.959 99.0293C130.959 98.0843 109.119 61.4403 107.515 59.6953C106.596 58.6943 105.866 59.2843 104.068 62.4833L101.788 66.5413L110.33 80.9473C115.029 88.8703 119.416 96.2233 120.08 97.2863C121.348 99.3173 120.156 102.001 107.557 125.464L102.992 133.964L102.976 119.773C102.965 110.824 103.351 105.34 104.021 104.926C106.122 103.627 107.099 99.2173 105.918 96.3663C103.299 90.0423 94.4854 90.6313 92.5884 97.2563C91.8034 99.9993 92.0104 101.042 93.8304 103.504C95.8614 106.25 95.9964 107.411 95.7374 119.912L95.4594 133.366L86.9594 117.335C82.2844 108.518 78.3294 100.745 78.1704 100.06C78.0104 99.3763 85.6554 85.8003 95.1584 69.8923C122.979 23.3193 129.104 18.5983 168.959 13.0123C179.134 11.5863 188.359 10.1743 189.459 9.87328C191.375 9.34928 199.679 0.741279 198.857 0.131279C198.638 -0.031721 188.109 1.3063 175.459 3.1043ZM7.95939 18.3453C7.95939 18.7273 10.0964 21.1083 12.7094 23.6363C17.0154 27.8033 18.0364 28.2943 23.6354 28.8903C39.8254 30.6123 52.1924 33.3533 59.5634 36.8533C68.2424 40.9753 76.8184 48.9413 81.6474 57.3663L84.7424 62.7673L87.4094 58.5443L90.0754 54.3203L87.0644 49.6423C80.2564 39.0643 67.2894 29.1933 55.3584 25.5063C52.0024 24.4693 40.7524 22.4473 30.3584 21.0133C19.9634 19.5793 10.6724 18.2363 9.70939 18.0283C8.74639 17.8213 7.95939 17.9643 7.95939 18.3453ZM170.459 20.6153C159.459 22.1613 147.534 24.3153 143.959 25.4033C131.707 29.1303 118.767 38.9003 111.854 49.6423L108.843 54.3203L111.509 58.5443L114.176 62.7673L117.071 57.7523C123.361 46.8583 132.731 38.8683 144.19 34.6273C147.342 33.4613 157.017 31.5223 165.69 30.3193L181.459 28.1313L186.411 23.3333C189.135 20.6953 191.16 18.3713 190.911 18.1713C190.663 17.9703 181.459 19.0703 170.459 20.6153ZM16.8254 37.1823C17.3584 38.1623 19.3804 40.4893 21.3184 42.3533C24.6274 45.5363 25.6174 45.8583 37.6504 47.6663C45.2744 48.8123 52.5544 50.5413 55.6344 51.9383C62.2934 54.9583 69.0954 61.2623 73.6414 68.6283C75.6224 71.8383 77.3684 74.4643 77.5204 74.4643C78.7784 74.4643 82.0534 66.9883 81.5854 65.1833C80.5714 61.2673 72.3894 51.9443 66.5874 48.0923C58.7374 42.8823 52.2374 40.8943 35.2124 38.4953C27.0984 37.3523 19.4234 36.1873 18.1574 35.9083C16.1954 35.4753 15.9984 35.6633 16.8254 37.1823ZM172.459 37.0493C150.405 40.3753 144.499 41.6233 139.394 44.0383C131.712 47.6723 125.057 53.2243 120.567 59.7423C116.421 65.7633 116.296 67.8383 119.808 72.3443L121.664 74.7243L124.801 69.2413C128.794 62.2613 136.549 54.9933 143.241 51.9573C146.366 50.5403 153.587 48.8203 161.243 47.6703C171.758 46.0903 174.482 45.3243 176.591 43.3573C179.742 40.4163 183.392 35.4233 182.277 35.5783C181.827 35.6403 177.409 36.3023 172.459 37.0493ZM54.4594 155.853C28.2434 164.957 23.6724 167.059 20.6714 171.391C18.4674 174.573 17.2144 175.464 14.9454 175.464C12.0674 175.464 8.11139 178.662 5.77639 182.874C4.75039 184.725 5.11739 184.763 17.5884 184.109C24.6674 183.737 36.5344 182.774 43.9594 181.969C80.5034 178.006 119.424 177.998 154.459 181.947C161.609 182.753 173.475 183.72 180.829 184.096C193.788 184.759 194.166 184.722 193.141 182.872C190.807 178.662 186.85 175.464 183.973 175.464C181.705 175.464 180.451 174.573 178.252 171.398C175.656 167.651 174.3 166.903 160.947 161.853C138.274 153.28 133.886 152.142 125.562 152.676C117.353 153.202 109.451 156.337 103.781 161.315C101.809 163.047 99.8644 164.464 99.4594 164.464C99.0544 164.464 97.1094 163.047 95.1374 161.315C89.0754 155.993 81.5114 153.13 72.4594 152.732C65.3924 152.421 63.2934 152.785 54.4594 155.853ZM80.0604 162.623C81.9294 163.26 85.4844 165.172 87.9594 166.873L92.4594 169.964L76.9594 170.644C68.4344 171.018 54.7484 172.032 46.5464 172.897C38.3444 173.763 31.4734 174.311 31.2774 174.116C30.9794 173.817 43.5884 169.026 60.4594 163.027C65.3854 161.276 75.4954 161.067 80.0604 162.623ZM145.255 165.477C158.51 170.131 168.951 174.361 167.338 174.422C166.721 174.445 159.781 173.756 151.914 172.89C144.048 172.024 130.602 171.011 122.035 170.64L106.459 169.964L110.959 166.862C120.908 160.005 128.768 159.687 145.255 165.477Z" fill="white"/>
<path fill-rule="evenodd" clip-rule="evenodd" d="M423.459 61.539C412.498 65.582 407.359 80.86 411.094 98.299C412.526 104.985 417.553 110.369 423.995 112.117C429.626 113.645 440.373 112.822 445.27 110.487L448.959 108.728V101.823C448.959 96.04 449.296 94.645 451.035 93.237C452.636 91.941 452.953 90.922 452.418 88.79L451.724 86.024L443.091 86.311L434.459 86.598L434.159 89.665C433.917 92.147 434.356 92.958 436.467 93.919C438.767 94.968 439.037 95.607 438.766 99.353L438.459 103.598H432.499C426.877 103.598 426.413 103.411 424.325 100.313C421.448 96.044 420.28 85.711 421.87 78.605C423.43 71.636 426.352 68.931 432.323 68.931C437.942 68.931 438.548 69.291 439.305 73.077C439.841 75.757 440.309 76.098 443.459 76.098C446.349 76.098 447.19 75.621 447.984 73.533C448.52 72.122 448.959 69.505 448.959 67.718C448.959 64.954 448.399 64.196 445.209 62.645C440.177 60.199 428.679 59.614 423.459 61.539ZM534.093 62.296C533.621 63.562 530.361 73.29 526.847 83.913C521.563 99.891 520.046 103.432 518.07 104.413C516.756 105.065 515.744 105.935 515.82 106.348C515.897 106.761 515.959 108.223 515.959 109.598C515.959 112.068 516.06 112.098 524.44 112.098C532.795 112.098 532.931 112.058 533.591 109.429C534.103 107.387 533.754 106.35 532.103 105.013C530.312 103.563 530.112 102.826 530.927 100.682C531.864 98.218 532.261 98.098 539.459 98.098C546.773 98.098 547.041 98.184 548.053 100.846C548.928 103.146 548.789 103.799 547.203 104.852C545.834 105.761 545.429 106.942 545.747 109.104L546.186 112.098H555.072H563.959V108.665C563.959 106.173 563.439 105.068 562.062 104.631C560.292 104.069 556.489 94.27 547.109 66.098L545.278 60.598L540.114 60.296C535.501 60.025 534.858 60.239 534.093 62.296ZM873.952 81.619C867.881 99.834 866.369 103.41 864.353 104.328C862.523 105.162 861.959 106.206 861.959 108.759V112.098H870.959H879.959V108.958C879.959 107.197 879.236 105.29 878.312 104.614C877.142 103.759 876.857 102.639 877.331 100.754C877.981 98.161 878.183 98.098 885.87 98.098C893.596 98.098 893.755 98.148 894.423 100.809C894.902 102.72 894.639 103.858 893.531 104.669C892.666 105.301 891.959 107.231 891.959 108.958V112.098H900.842H909.726L910.294 109.348C910.732 107.225 910.297 106.129 908.389 104.543C906.551 103.016 904.059 97.108 898.688 81.543L891.459 60.598L886.308 60.299L881.158 60L873.952 81.619ZM928.979 62.348C922.918 65.445 920.728 68.754 920.728 74.818C920.728 84.045 924.515 87.878 937.301 91.595C941.513 92.82 943.381 93.931 944.181 95.687C946.549 100.883 941.048 105.9 934.359 104.645C931.91 104.186 931.039 103.363 930.316 100.829C929.525 98.051 928.892 97.556 925.805 97.295C921.804 96.958 921.491 97.369 920.448 104.325L919.775 108.807L923.947 110.476C942.201 117.781 958.808 108.676 955.93 92.94C954.878 87.189 950.802 83.715 941.947 81.026C934.117 78.647 931.959 77.061 931.959 73.682C931.959 70.552 934.982 68.098 938.839 68.098C941.576 68.098 942.281 68.625 943.523 71.598C944.793 74.636 945.44 75.098 948.425 75.098C951.548 75.098 951.961 74.753 952.906 71.348C954.888 64.212 954.549 63.527 948.143 61.73C940.082 59.468 934.248 59.656 928.979 62.348ZM276.337 63.728C275.814 65.813 276.152 66.836 277.808 68.177C279.854 69.833 279.959 70.735 279.959 86.598C279.959 102.461 279.854 103.363 277.808 105.019C276.164 106.351 275.815 107.389 276.327 109.429L276.997 112.098H293.978H310.959V105.598V99.098H307.938C305.685 99.098 304.626 99.734 303.777 101.598C302.751 103.849 302.057 104.098 296.798 104.098H290.959V86.839C290.959 70.489 291.068 69.511 293.021 68.291C294.449 67.399 294.987 66.173 294.771 64.301C294.462 61.62 294.389 61.596 285.738 61.309L277.016 61.021L276.337 63.728ZM321.327 63.767C320.815 65.807 321.164 66.845 322.808 68.177C324.855 69.835 324.959 70.731 324.959 86.768C324.959 102.702 324.847 103.687 322.897 104.905C321.469 105.797 320.931 107.023 321.147 108.895C321.456 111.576 321.529 111.6 330.18 111.887L338.902 112.175L339.581 109.468C340.104 107.383 339.766 106.36 338.11 105.019C336.064 103.363 335.959 102.461 335.959 86.598C335.959 70.735 336.064 69.833 338.11 68.177C339.754 66.845 340.103 65.807 339.591 63.767C338.931 61.138 338.794 61.098 330.459 61.098C322.124 61.098 321.987 61.138 321.327 63.767ZM352.626 61.765C351.221 63.169 352.043 67.073 353.959 68.098C355.841 69.105 355.959 70.192 355.959 86.511C355.959 102.966 355.853 103.925 353.879 105.235C352.256 106.313 351.951 107.217 352.488 109.357C353.16 112.036 353.344 112.098 360.567 112.098H367.959V109.155C367.959 107.395 367.194 105.675 366.055 104.878C364.353 103.686 364.115 101.926 363.805 88.294C363.49 74.424 363.588 73.341 364.879 76.321C365.66 78.123 369.935 86.907 374.379 95.841L382.459 112.084L388.709 112.091L394.959 112.098V90.82C394.959 71.223 395.108 69.415 396.841 67.931C398.121 66.835 398.564 65.483 398.225 63.708C397.741 61.175 397.507 61.098 390.342 61.098H382.959V64.041C382.959 65.824 383.727 67.522 384.905 68.348C386.658 69.575 386.882 71.176 387.155 84.406C387.448 98.55 386.944 102.161 385.489 96.363C385.112 94.859 381.126 86.309 376.631 77.363L368.459 61.098H360.876C356.705 61.098 352.992 61.398 352.626 61.765ZM464.626 61.765C463.233 63.157 464.041 67.132 465.959 68.33C467.833 69.5 467.959 70.662 467.959 86.771C467.959 103.244 467.873 103.991 465.902 104.616C464.297 105.125 463.913 105.965 464.152 108.433L464.459 111.598L473.18 111.887L481.902 112.175L482.581 109.468C483.107 107.374 482.764 106.359 481.07 104.987C479.071 103.368 478.905 102.447 479.169 94.456L479.459 85.699L487.459 98.89L495.459 112.081L501.959 111.84L508.459 111.598V108.598C508.459 106.227 507.805 105.284 505.342 104.098C503.318 103.125 500.203 99.528 496.466 93.852C491.369 86.112 490.865 84.905 492.083 83.353C497.944 75.885 503.565 69.387 505.113 68.291C506.194 67.526 506.959 65.764 506.959 64.041V61.098H497.959H488.959V64.039C488.959 65.657 489.44 67.277 490.027 67.64C491.525 68.566 490.791 70.023 484.758 78.094L479.459 85.183L479.166 77.586C478.903 70.778 479.101 69.804 481.067 68.212C482.752 66.847 483.105 65.817 482.591 63.767C481.932 61.143 481.781 61.098 473.607 61.098C469.034 61.098 464.992 61.398 464.626 61.765ZM574.626 61.765C573.233 63.157 574.041 67.132 575.959 68.33C577.832 69.5 577.959 70.662 577.959 86.598C577.959 102.704 577.848 103.686 575.897 104.905C574.469 105.797 573.931 107.023 574.147 108.895L574.459 111.598L584.591 111.882L594.722 112.165L595.184 109.015C595.596 106.211 595.28 105.712 592.303 104.468C589.039 103.105 588.959 102.928 588.959 97.085V91.098H592.007C594.901 91.098 595.306 91.633 599.959 101.598L604.862 112.098H611.411H617.959V109.121C617.959 107.089 617.203 105.649 615.579 104.585C614.27 103.727 611.794 100.389 610.077 97.168C608.36 93.946 606.224 91.03 605.331 90.687C604.054 90.197 604.579 89.431 607.781 87.112C613.02 83.317 613.959 81.437 613.959 74.74C613.959 68.069 611.131 64.065 605.152 62.274C601.028 61.038 575.773 60.617 574.626 61.765ZM652.959 64.531C652.959 67.085 653.471 68.126 654.959 68.598C656.855 69.2 656.959 70.111 656.959 86.157C656.959 101.998 656.831 103.161 654.959 104.33C653.624 105.164 652.959 106.662 652.959 108.839V112.098H670.459H687.959V105.598V99.098H684.938C682.685 99.098 681.626 99.734 680.777 101.598C679.736 103.882 679.09 104.098 673.298 104.098H666.959V97.098V90.098H672.409C676.37 90.098 678.105 90.536 678.757 91.701C679.25 92.582 680.51 93.14 681.556 92.94C683.165 92.633 683.505 91.538 683.755 85.838C684.044 79.239 683.998 79.098 681.554 79.098C680.182 79.098 678.665 79.801 678.184 80.66C677.534 81.821 676.046 82.142 672.385 81.91L667.459 81.598L667.161 75.348L666.864 69.098H672.933C678.436 69.098 679.108 69.331 680.141 71.598C680.967 73.41 682.061 74.098 684.12 74.098C686.948 74.098 686.959 74.072 686.959 67.598V61.098H669.959H652.959V64.531ZM700.629 63.848C700.215 65.867 700.582 66.962 702.012 67.97C703.811 69.238 703.959 70.632 703.959 86.31C703.959 101.899 703.801 103.412 702.009 104.938C700.603 106.134 700.217 107.366 700.625 109.348L701.192 112.098L713.326 112.092C719.999 112.089 727.133 111.622 729.178 111.054C737.326 108.791 742.642 101.302 743.633 90.691C744.826 77.915 740.04 67.907 730.649 63.534C726.064 61.399 724.046 61.116 713.326 61.108L701.192 61.098L700.629 63.848ZM754.491 63.827C753.975 65.882 754.288 66.946 755.758 68.136C757.51 69.555 757.755 71.355 758.144 85.658C758.612 102.867 759.422 105.957 764.509 109.959C770.276 114.495 784.708 113.628 790.145 108.42C794.158 104.575 794.947 100.556 794.953 83.915C794.959 70.114 795.079 69.195 796.959 68.598C798.447 68.126 798.959 67.085 798.959 64.531V61.098H790.572H782.186L781.746 64.097C781.4 66.456 781.831 67.439 783.767 68.708L786.227 70.32L785.74 84.66C785.152 101.993 784.275 104.107 777.686 104.083C775.361 104.074 772.925 103.728 772.272 103.312C769.816 101.751 768.959 96.565 768.959 83.273C768.959 70.662 769.117 69.48 770.959 68.33C772.235 67.533 772.959 65.998 772.959 64.09V61.098H764.067C755.218 61.098 755.173 61.111 754.491 63.827ZM810.629 63.848C810.215 65.867 810.582 66.962 812.012 67.97C813.811 69.238 813.959 70.632 813.959 86.31C813.959 101.899 813.801 103.412 812.009 104.938C810.603 106.134 810.217 107.366 810.625 109.348L811.192 112.098H820.076H828.959V108.665C828.959 106.111 828.447 105.07 826.959 104.598C825.061 103.996 824.959 103.085 824.959 86.771C824.959 70.662 825.085 69.5 826.959 68.33C828.235 67.533 828.959 65.998 828.959 64.09V61.098H820.076H811.192L810.629 63.848ZM835.495 63.809C835.018 65.712 835.278 66.858 836.37 67.656C837.713 68.639 837.166 69.799 832.345 76.196C829.276 80.267 826.551 84.121 826.289 84.761C826.027 85.4 829.471 91.813 833.942 99.011L842.073 112.098H848.516H854.959V108.783C854.959 105.999 854.416 105.209 851.566 103.85C849.201 102.723 846.468 99.617 842.55 93.606L836.927 84.98L842.933 77.629C846.237 73.587 850.041 69.451 851.387 68.438C853.285 67.011 853.71 65.981 853.28 63.848C852.729 61.114 852.677 61.098 844.451 61.098C836.287 61.098 836.167 61.134 835.495 63.809ZM968.626 61.765C967.233 63.157 968.041 67.132 969.959 68.33C971.833 69.5 971.959 70.662 971.959 86.771C971.959 103.244 971.873 103.991 969.902 104.616C968.297 105.125 967.913 105.965 968.152 108.433L968.459 111.598L977.091 111.885L985.724 112.172L986.418 109.406C986.953 107.274 986.636 106.255 985.035 104.959C983.084 103.378 982.959 102.276 982.959 86.598C982.959 70.92 983.084 69.818 985.035 68.237C986.626 66.949 986.952 65.917 986.427 63.827C985.751 61.132 985.64 61.098 977.517 61.098C972.994 61.098 968.992 61.398 968.626 61.765ZM600.736 70.655C602.258 71.721 602.959 73.236 602.959 75.464C602.959 80.635 601.034 82.344 594.609 82.877L588.959 83.346V76.222V69.098H593.736C596.442 69.098 599.478 69.773 600.736 70.655ZM726.344 71.186C730.701 74.613 732.289 78.813 732.361 87.098C732.397 91.223 731.853 95.975 731.151 97.657C729.454 101.723 725.179 104.098 719.555 104.098H714.959V86.598V69.098H719.324C722.237 69.098 724.573 69.793 726.344 71.186ZM543.924 89.848C543.948 90.689 542.289 91.098 538.852 91.098C534.39 91.098 533.833 90.877 534.44 89.348C534.822 88.386 536.086 83.954 537.249 79.499L539.364 71.4L541.627 79.999C542.872 84.729 543.905 89.161 543.924 89.848ZM887.8 79.651C888.939 84.08 890.164 88.468 890.522 89.401C891.083 90.862 890.454 91.098 885.996 91.098C881.603 91.098 880.871 90.833 881.161 89.348C881.896 85.573 885.423 71.23 885.571 71.409C885.658 71.513 886.661 75.222 887.8 79.651Z" fill="white"/>
</svg>
