<svg width="166" height="166" viewBox="0 0 166 166" fill="none" xmlns="http://www.w3.org/2000/svg">
<g clip-path="url(#clip0_90_143)">
<path d="M83.0002 131.417C83.0002 104.649 104.649 82.9998 131.417 82.9998C138.887 82.9998 145.873 84.729 152.167 87.7032V41.4998C152.167 33.8915 145.942 27.6665 138.333 27.6665H27.6668C20.0585 27.6665 13.8335 33.8915 13.8335 41.4998V124.5C13.8335 132.108 20.0585 138.333 27.6668 138.333H83.5535C83.2077 136.051 83.0002 133.768 83.0002 131.417ZM27.6668 41.4998L83.0002 76.0832L138.333 41.4998V55.3332L83.0002 89.9165L27.6668 55.3332V41.4998ZM119.935 152.167L95.4502 127.681L105.203 117.929L119.866 132.592L149.193 103.266L159.083 113.018L119.935 152.167Z" fill="white"/>
</g>
<defs>
<clipPath id="clip0_90_143">
<rect width="166" height="166" fill="white"/>
</clipPath>
</defs>
</svg>
