<svg width="199" height="185" viewBox="0 0 199 185" fill="none" xmlns="http://www.w3.org/2000/svg">
<path fill-rule="evenodd" clip-rule="evenodd" d="M0.000391243 0.353294C0.0233912 0.689294 1.84539 2.95928 4.04939 5.39828L8.0574 9.83129L27.7584 12.6113C48.9114 15.5953 57.3384 17.8263 65.8594 22.6963C73.0504 26.8063 83.6324 36.9333 87.9594 43.8463C89.8844 46.9213 91.8264 49.3203 92.2754 49.1783C92.7244 49.0363 94.0194 47.2953 95.1544 45.3103L97.2174 41.7003L93.8954 36.8713C86.6734 26.3743 77.9114 18.9333 65.3794 12.6533C56.9694 8.43928 50.3814 6.90827 25.7804 3.44527C14.0534 1.79527 3.44739 0.286285 2.20939 0.0932846C0.971391 -0.0997154 -0.0226088 0.0162944 0.000391243 0.353294ZM175.459 3.1043C162.809 4.9013 149.607 7.08329 146.12 7.95229C132.691 11.2983 116.959 21.4053 108.596 32.0603C102.893 39.3273 67.7364 98.1903 68.1454 99.7883C68.3184 100.462 75.3974 114.167 83.8764 130.243L99.2944 159.473L101.454 155.67C106.002 147.664 130.959 99.7533 130.959 99.0293C130.959 98.0843 109.119 61.4403 107.515 59.6953C106.596 58.6943 105.866 59.2843 104.068 62.4833L101.788 66.5413L110.33 80.9473C115.029 88.8703 119.416 96.2233 120.08 97.2863C121.348 99.3173 120.156 102.001 107.557 125.464L102.992 133.964L102.976 119.773C102.965 110.824 103.351 105.34 104.021 104.926C106.122 103.627 107.099 99.2173 105.918 96.3663C103.299 90.0423 94.4854 90.6313 92.5884 97.2563C91.8034 99.9993 92.0104 101.042 93.8304 103.504C95.8614 106.25 95.9964 107.411 95.7374 119.912L95.4594 133.366L86.9594 117.335C82.2844 108.518 78.3294 100.745 78.1704 100.06C78.0104 99.3763 85.6554 85.8003 95.1584 69.8923C122.979 23.3193 129.104 18.5983 168.959 13.0123C179.134 11.5863 188.359 10.1743 189.459 9.87328C191.375 9.34928 199.679 0.741279 198.857 0.131279C198.638 -0.031721 188.109 1.3063 175.459 3.1043ZM7.95939 18.3453C7.95939 18.7273 10.0964 21.1083 12.7094 23.6363C17.0154 27.8033 18.0364 28.2943 23.6354 28.8903C39.8254 30.6123 52.1924 33.3533 59.5634 36.8533C68.2424 40.9753 76.8184 48.9413 81.6474 57.3663L84.7424 62.7673L87.4094 58.5443L90.0754 54.3203L87.0644 49.6423C80.2564 39.0643 67.2894 29.1933 55.3584 25.5063C52.0024 24.4693 40.7524 22.4473 30.3584 21.0133C19.9634 19.5793 10.6724 18.2363 9.70939 18.0283C8.74639 17.8213 7.95939 17.9643 7.95939 18.3453ZM170.459 20.6153C159.459 22.1613 147.534 24.3153 143.959 25.4033C131.707 29.1303 118.767 38.9003 111.854 49.6423L108.843 54.3203L111.509 58.5443L114.176 62.7673L117.071 57.7523C123.361 46.8583 132.731 38.8683 144.19 34.6273C147.342 33.4613 157.017 31.5223 165.69 30.3193L181.459 28.1313L186.411 23.3333C189.135 20.6953 191.16 18.3713 190.911 18.1713C190.663 17.9703 181.459 19.0703 170.459 20.6153ZM16.8254 37.1823C17.3584 38.1623 19.3804 40.4893 21.3184 42.3533C24.6274 45.5363 25.6174 45.8583 37.6504 47.6663C45.2744 48.8123 52.5544 50.5413 55.6344 51.9383C62.2934 54.9583 69.0954 61.2623 73.6414 68.6283C75.6224 71.8383 77.3684 74.4643 77.5204 74.4643C78.7784 74.4643 82.0534 66.9883 81.5854 65.1833C80.5714 61.2673 72.3894 51.9443 66.5874 48.0923C58.7374 42.8823 52.2374 40.8943 35.2124 38.4953C27.0984 37.3523 19.4234 36.1873 18.1574 35.9083C16.1954 35.4753 15.9984 35.6633 16.8254 37.1823ZM172.459 37.0493C150.405 40.3753 144.499 41.6233 139.394 44.0383C131.712 47.6723 125.057 53.2243 120.567 59.7423C116.421 65.7633 116.296 67.8383 119.808 72.3443L121.664 74.7243L124.801 69.2413C128.794 62.2613 136.549 54.9933 143.241 51.9573C146.366 50.5403 153.587 48.8203 161.243 47.6703C171.758 46.0903 174.482 45.3243 176.591 43.3573C179.742 40.4163 183.392 35.4233 182.277 35.5783C181.827 35.6403 177.409 36.3023 172.459 37.0493ZM54.4594 155.853C28.2434 164.957 23.6724 167.059 20.6714 171.391C18.4674 174.573 17.2144 175.464 14.9454 175.464C12.0674 175.464 8.11139 178.662 5.77639 182.874C4.75039 184.725 5.11739 184.763 17.5884 184.109C24.6674 183.737 36.5344 182.774 43.9594 181.969C80.5034 178.006 119.424 177.998 154.459 181.947C161.609 182.753 173.475 183.72 180.829 184.096C193.788 184.759 194.166 184.722 193.141 182.872C190.807 178.662 186.85 175.464 183.973 175.464C181.705 175.464 180.451 174.573 178.252 171.398C175.656 167.651 174.3 166.903 160.947 161.853C138.274 153.28 133.886 152.142 125.562 152.676C117.353 153.202 109.451 156.337 103.781 161.315C101.809 163.047 99.8644 164.464 99.4594 164.464C99.0544 164.464 97.1094 163.047 95.1374 161.315C89.0754 155.993 81.5114 153.13 72.4594 152.732C65.3924 152.421 63.2934 152.785 54.4594 155.853ZM80.0604 162.623C81.9294 163.26 85.4844 165.172 87.9594 166.873L92.4594 169.964L76.9594 170.644C68.4344 171.018 54.7484 172.032 46.5464 172.897C38.3444 173.763 31.4734 174.311 31.2774 174.116C30.9794 173.817 43.5884 169.026 60.4594 163.027C65.3854 161.276 75.4954 161.067 80.0604 162.623ZM145.255 165.477C158.51 170.131 168.951 174.361 167.338 174.422C166.721 174.445 159.781 173.756 151.914 172.89C144.048 172.024 130.602 171.011 122.035 170.64L106.459 169.964L110.959 166.862C120.908 160.005 128.768 159.687 145.255 165.477Z" fill="#0D1D37"/>
</svg>
