<svg width="711" height="54" viewBox="0 0 711 54" fill="none" xmlns="http://www.w3.org/2000/svg">
<path fill-rule="evenodd" clip-rule="evenodd" d="M147.459 1.539C136.498 5.582 131.359 20.86 135.094 38.299C136.526 44.985 141.553 50.369 147.995 52.117C153.626 53.645 164.373 52.822 169.27 50.487L172.959 48.728V41.823C172.959 36.04 173.296 34.645 175.035 33.237C176.636 31.941 176.953 30.922 176.418 28.79L175.724 26.024L167.091 26.311L158.459 26.598L158.159 29.665C157.917 32.147 158.356 32.958 160.467 33.919C162.767 34.968 163.037 35.607 162.766 39.353L162.459 43.598H156.499C150.877 43.598 150.413 43.411 148.325 40.313C145.448 36.044 144.28 25.711 145.87 18.605C147.43 11.636 150.352 8.931 156.323 8.931C161.942 8.931 162.548 9.29099 163.305 13.077C163.841 15.757 164.309 16.098 167.459 16.098C170.349 16.098 171.19 15.621 171.984 13.533C172.52 12.122 172.959 9.50499 172.959 7.71799C172.959 4.95399 172.399 4.19599 169.209 2.64499C164.177 0.19899 152.679 -0.385998 147.459 1.539ZM258.093 2.29599C257.621 3.56199 254.361 13.29 250.847 23.913C245.563 39.891 244.046 43.432 242.07 44.413C240.756 45.065 239.744 45.935 239.82 46.348C239.897 46.761 239.959 48.223 239.959 49.598C239.959 52.068 240.06 52.098 248.44 52.098C256.795 52.098 256.931 52.058 257.591 49.429C258.103 47.387 257.754 46.35 256.103 45.013C254.312 43.563 254.112 42.826 254.927 40.682C255.864 38.218 256.261 38.098 263.459 38.098C270.773 38.098 271.041 38.184 272.053 40.846C272.928 43.146 272.789 43.799 271.203 44.852C269.834 45.761 269.429 46.942 269.747 49.104L270.186 52.098H279.072H287.959V48.665C287.959 46.173 287.439 45.068 286.062 44.631C284.292 44.069 280.489 34.27 271.109 6.09799L269.278 0.597992L264.114 0.29599C259.501 0.0249901 258.858 0.238991 258.093 2.29599ZM597.952 21.619C591.881 39.834 590.369 43.41 588.353 44.328C586.523 45.162 585.959 46.206 585.959 48.759V52.098H594.959H603.959V48.958C603.959 47.197 603.236 45.29 602.312 44.614C601.142 43.759 600.857 42.639 601.331 40.754C601.981 38.161 602.183 38.098 609.87 38.098C617.596 38.098 617.755 38.148 618.423 40.809C618.902 42.72 618.639 43.858 617.531 44.669C616.666 45.301 615.959 47.231 615.959 48.958V52.098H624.842H633.726L634.294 49.348C634.732 47.225 634.297 46.129 632.389 44.543C630.551 43.016 628.059 37.108 622.688 21.543L615.459 0.597992L610.308 0.298981L605.158 0L597.952 21.619ZM652.979 2.34799C646.918 5.44499 644.728 8.75399 644.728 14.818C644.728 24.045 648.515 27.878 661.301 31.595C665.513 32.82 667.381 33.931 668.181 35.687C670.549 40.883 665.048 45.9 658.359 44.645C655.91 44.186 655.039 43.363 654.316 40.829C653.525 38.051 652.892 37.556 649.805 37.295C645.804 36.958 645.491 37.369 644.448 44.325L643.775 48.807L647.947 50.476C666.201 57.781 682.808 48.676 679.93 32.94C678.878 27.189 674.802 23.715 665.947 21.026C658.117 18.647 655.959 17.061 655.959 13.682C655.959 10.552 658.982 8.09799 662.839 8.09799C665.576 8.09799 666.281 8.62499 667.523 11.598C668.793 14.636 669.44 15.098 672.425 15.098C675.548 15.098 675.961 14.753 676.906 11.348C678.888 4.21199 678.549 3.52698 672.143 1.72998C664.082 -0.532021 658.248 -0.344009 652.979 2.34799ZM0.337412 3.728C-0.185583 5.813 0.152415 6.836 1.80842 8.177C3.85443 9.833 3.95942 10.735 3.95942 26.598C3.95942 42.461 3.85443 43.363 1.80842 45.019C0.164423 46.351 -0.18456 47.389 0.327433 49.429L0.997416 52.098H17.9784H34.9594V45.598V39.098H31.9384C29.6854 39.098 28.6264 39.734 27.7774 41.598C26.7514 43.849 26.0574 44.098 20.7984 44.098H14.9594V26.839C14.9594 10.489 15.0684 9.51099 17.0214 8.29099C18.4494 7.39899 18.9874 6.173 18.7714 4.30099C18.4624 1.62 18.3894 1.59599 9.73841 1.30899L1.01643 1.021L0.337412 3.728ZM45.3274 3.767C44.8154 5.807 45.1644 6.845 46.8084 8.177C48.8554 9.835 48.9594 10.731 48.9594 26.768C48.9594 42.702 48.8474 43.687 46.8974 44.905C45.4694 45.797 44.9314 47.023 45.1474 48.895C45.4564 51.576 45.5294 51.6 54.1804 51.887L62.9024 52.175L63.5814 49.468C64.1044 47.383 63.7664 46.36 62.1104 45.019C60.0644 43.363 59.9594 42.461 59.9594 26.598C59.9594 10.735 60.0644 9.833 62.1104 8.177C63.7544 6.845 64.1034 5.807 63.5914 3.767C62.9314 1.138 62.7944 1.09799 54.4594 1.09799C46.1244 1.09799 45.9874 1.138 45.3274 3.767ZM76.6264 1.76498C75.2214 3.16898 76.0434 7.07299 77.9594 8.09799C79.8414 9.10499 79.9594 10.192 79.9594 26.511C79.9594 42.966 79.8534 43.925 77.8794 45.235C76.2564 46.313 75.9514 47.217 76.4884 49.357C77.1604 52.036 77.3444 52.098 84.5674 52.098H91.9594V49.155C91.9594 47.395 91.1944 45.675 90.0554 44.878C88.3534 43.686 88.1154 41.926 87.8054 28.294C87.4904 14.424 87.5884 13.341 88.8794 16.321C89.6604 18.123 93.9354 26.907 98.3794 35.841L106.459 52.084L112.709 52.091L118.959 52.098V30.82C118.959 11.223 119.108 9.415 120.841 7.931C122.121 6.835 122.564 5.48298 122.225 3.70798C121.741 1.17498 121.507 1.09799 114.342 1.09799H106.959V4.04099C106.959 5.82398 107.727 7.522 108.905 8.34799C110.658 9.57499 110.882 11.176 111.155 24.406C111.448 38.55 110.944 42.161 109.489 36.363C109.112 34.859 105.126 26.309 100.631 17.363L92.4594 1.09799H84.8764C80.7054 1.09799 76.9924 1.39799 76.6264 1.76498ZM188.626 1.76498C187.233 3.15698 188.041 7.13199 189.959 8.32999C191.833 9.49998 191.959 10.662 191.959 26.771C191.959 43.244 191.873 43.991 189.902 44.616C188.297 45.125 187.913 45.965 188.152 48.433L188.459 51.598L197.18 51.887L205.902 52.175L206.581 49.468C207.107 47.374 206.764 46.359 205.07 44.987C203.071 43.368 202.905 42.447 203.169 34.456L203.459 25.699L211.459 38.89L219.459 52.081L225.959 51.84L232.459 51.598V48.598C232.459 46.227 231.805 45.284 229.342 44.098C227.318 43.125 224.203 39.528 220.466 33.852C215.369 26.112 214.865 24.905 216.083 23.353C221.944 15.885 227.565 9.38699 229.113 8.29099C230.194 7.52599 230.959 5.76398 230.959 4.04099V1.09799H221.959H212.959V4.039C212.959 5.65701 213.44 7.27699 214.027 7.63998C215.525 8.56599 214.791 10.023 208.758 18.094L203.459 25.183L203.166 17.586C202.903 10.778 203.101 9.80401 205.067 8.21201C206.752 6.84701 207.105 5.817 206.591 3.767C205.932 1.143 205.781 1.09799 197.607 1.09799C193.034 1.09799 188.992 1.39799 188.626 1.76498ZM298.626 1.76498C297.233 3.15698 298.041 7.13199 299.959 8.32999C301.832 9.49998 301.959 10.662 301.959 26.598C301.959 42.704 301.848 43.686 299.897 44.905C298.469 45.797 297.931 47.023 298.147 48.895L298.459 51.598L308.591 51.882L318.722 52.165L319.184 49.015C319.596 46.211 319.28 45.712 316.303 44.468C313.039 43.105 312.959 42.928 312.959 37.085V31.098H316.007C318.901 31.098 319.306 31.633 323.959 41.598L328.862 52.098H335.411H341.959V49.121C341.959 47.089 341.203 45.649 339.579 44.585C338.27 43.727 335.794 40.389 334.077 37.168C332.36 33.946 330.224 31.03 329.331 30.687C328.054 30.197 328.579 29.431 331.781 27.112C337.02 23.317 337.959 21.437 337.959 14.74C337.959 8.06899 335.131 4.06499 329.152 2.27399C325.028 1.03799 299.773 0.616985 298.626 1.76498ZM376.959 4.53101C376.959 7.08501 377.471 8.12599 378.959 8.59799C380.855 9.19999 380.959 10.111 380.959 26.157C380.959 41.998 380.831 43.161 378.959 44.33C377.624 45.164 376.959 46.662 376.959 48.839V52.098H394.459H411.959V45.598V39.098H408.938C406.685 39.098 405.626 39.734 404.777 41.598C403.736 43.882 403.09 44.098 397.298 44.098H390.959V37.098V30.098H396.409C400.37 30.098 402.105 30.536 402.757 31.701C403.25 32.582 404.51 33.14 405.556 32.94C407.165 32.633 407.505 31.538 407.755 25.838C408.044 19.239 407.998 19.098 405.554 19.098C404.182 19.098 402.665 19.801 402.184 20.66C401.534 21.821 400.046 22.142 396.385 21.91L391.459 21.598L391.161 15.348L390.864 9.09799H396.933C402.436 9.09799 403.108 9.33099 404.141 11.598C404.967 13.41 406.061 14.098 408.12 14.098C410.948 14.098 410.959 14.072 410.959 7.59799V1.09799H393.959H376.959V4.53101ZM424.629 3.84799C424.215 5.86699 424.582 6.962 426.012 7.97C427.811 9.238 427.959 10.632 427.959 26.31C427.959 41.899 427.801 43.412 426.009 44.938C424.603 46.134 424.217 47.366 424.625 49.348L425.192 52.098L437.326 52.092C443.999 52.089 451.133 51.622 453.178 51.054C461.326 48.791 466.642 41.302 467.633 30.691C468.826 17.915 464.04 7.907 454.649 3.534C450.064 1.39899 448.046 1.116 437.326 1.108L425.192 1.09799L424.629 3.84799ZM478.491 3.827C477.975 5.882 478.288 6.94598 479.758 8.13599C481.51 9.55499 481.755 11.355 482.144 25.658C482.612 42.867 483.422 45.957 488.509 49.959C494.276 54.495 508.708 53.628 514.145 48.42C518.158 44.575 518.947 40.556 518.953 23.915C518.959 10.114 519.079 9.19499 520.959 8.59799C522.447 8.12599 522.959 7.08501 522.959 4.53101V1.09799H514.572H506.186L505.746 4.09698C505.4 6.45599 505.831 7.43898 507.767 8.70798L510.227 10.32L509.74 24.66C509.152 41.993 508.275 44.107 501.686 44.083C499.361 44.074 496.925 43.728 496.272 43.312C493.816 41.751 492.959 36.565 492.959 23.273C492.959 10.662 493.117 9.47999 494.959 8.32999C496.235 7.53299 496.959 5.99799 496.959 4.09V1.09799H488.067C479.218 1.09799 479.173 1.11099 478.491 3.827ZM534.629 3.84799C534.215 5.86699 534.582 6.962 536.012 7.97C537.811 9.238 537.959 10.632 537.959 26.31C537.959 41.899 537.801 43.412 536.009 44.938C534.603 46.134 534.217 47.366 534.625 49.348L535.192 52.098H544.076H552.959V48.665C552.959 46.111 552.447 45.07 550.959 44.598C549.061 43.996 548.959 43.085 548.959 26.771C548.959 10.662 549.085 9.49998 550.959 8.32999C552.235 7.53299 552.959 5.99799 552.959 4.09V1.09799H544.076H535.192L534.629 3.84799ZM559.495 3.80899C559.018 5.71199 559.278 6.85801 560.37 7.65601C561.713 8.63901 561.166 9.79898 556.345 16.196C553.276 20.267 550.551 24.121 550.289 24.761C550.027 25.4 553.471 31.813 557.942 39.011L566.073 52.098H572.516H578.959V48.783C578.959 45.999 578.416 45.209 575.566 43.85C573.201 42.723 570.468 39.617 566.55 33.606L560.927 24.98L566.933 17.629C570.237 13.587 574.041 9.45099 575.387 8.43799C577.285 7.01099 577.71 5.981 577.28 3.84799C576.729 1.11399 576.677 1.09799 568.451 1.09799C560.287 1.09799 560.167 1.13399 559.495 3.80899ZM692.626 1.76498C691.233 3.15698 692.041 7.13199 693.959 8.32999C695.833 9.49998 695.959 10.662 695.959 26.771C695.959 43.244 695.873 43.991 693.902 44.616C692.297 45.125 691.913 45.965 692.152 48.433L692.459 51.598L701.091 51.885L709.724 52.172L710.418 49.406C710.953 47.274 710.636 46.255 709.035 44.959C707.084 43.378 706.959 42.276 706.959 26.598C706.959 10.92 707.084 9.818 709.035 8.237C710.626 6.949 710.952 5.91699 710.427 3.827C709.751 1.132 709.64 1.09799 701.517 1.09799C696.994 1.09799 692.992 1.39799 692.626 1.76498ZM324.736 10.655C326.258 11.721 326.959 13.236 326.959 15.464C326.959 20.635 325.034 22.344 318.609 22.877L312.959 23.346V16.222V9.09799H317.736C320.442 9.09799 323.478 9.77299 324.736 10.655ZM450.344 11.186C454.701 14.613 456.289 18.813 456.361 27.098C456.397 31.223 455.853 35.975 455.151 37.657C453.454 41.723 449.179 44.098 443.555 44.098H438.959V26.598V9.09799H443.324C446.237 9.09799 448.573 9.79301 450.344 11.186ZM267.924 29.848C267.948 30.689 266.289 31.098 262.852 31.098C258.39 31.098 257.833 30.877 258.44 29.348C258.822 28.386 260.086 23.954 261.249 19.499L263.364 11.4L265.627 19.999C266.872 24.729 267.905 29.161 267.924 29.848ZM611.8 19.651C612.939 24.08 614.164 28.468 614.522 29.401C615.083 30.862 614.454 31.098 609.996 31.098C605.603 31.098 604.871 30.833 605.161 29.348C605.896 25.573 609.423 11.23 609.571 11.409C609.658 11.513 610.661 15.222 611.8 19.651Z" fill="#0D1D37"/>
</svg>
